<?xml version="1.0" encoding="UTF-8" standalone="no"?>
<svg width="95px" height="13px" viewBox="0 0 95 13" version="1.1" xmlns="http://www.w3.org/2000/svg" xmlns:xlink="http://www.w3.org/1999/xlink">
    <!-- Generator: Sketch 42 (36781) - http://www.bohemiancoding.com/sketch -->
    <title>Oracle Logo</title>
    <desc>Created with Sketch.</desc>
    <defs></defs>
    <g id="Page-1" stroke="none" stroke-width="1" fill="none" fill-rule="evenodd">
        <g id="Oracle-LogoNew" fill="#000000">
            <g id="Oracle-Logo">
                <path d="M92.9767292,2.72834806 C92.2609819,2.72834806 91.6727936,2.13470848 91.6727936,1.39265901 C91.6727936,0.657676678 92.2609819,0.0569699647 92.9767292,0.0569699647 C93.699563,0.0569699647 94.2877514,0.657676678 94.2877514,1.39265901 C94.2877514,2.13470848 93.699563,2.72834806 92.9767292,2.72834806 L92.9767292,2.72834806 Z M92.9767292,0.339655477 C92.4098006,0.339655477 91.9562578,0.81315371 91.9562578,1.39265901 C91.9562578,1.97216431 92.4098006,2.43859541 92.9767292,2.43859541 C93.5507443,2.43859541 94.0042871,1.97216431 94.0042871,1.39265901 C94.0042871,0.81315371 93.5507443,0.339655477 92.9767292,0.339655477 L92.9767292,0.339655477 Z M93.3239729,1.44212898 C93.3097997,1.44919611 93.3027131,1.46333039 93.2601934,1.47746466 L93.6003505,2.09937279 L93.2743666,2.09937279 L92.9767292,1.52693463 L92.7783042,1.52693463 L92.7783042,2.09937279 L92.4877533,2.09937279 L92.4877533,0.601139576 L92.8562569,0.601139576 C93.0546818,0.601139576 93.1397211,0.601139576 93.2389336,0.643542403 C93.4940514,0.728348057 93.5223979,0.97569788 93.5223979,1.06050353 C93.5223979,1.08170495 93.5223979,1.13117491 93.5082246,1.18771201 C93.4940514,1.24424912 93.4586184,1.35732332 93.3239729,1.44212898 L93.3239729,1.44212898 Z M93.1255479,0.876757951 C93.0617684,0.848489399 92.9909024,0.848489399 92.8562569,0.848489399 L92.7783042,0.848489399 L92.7783042,1.27958481 L92.9554693,1.27958481 C93.0475952,1.27958481 93.1468077,1.27251767 93.2035006,1.18771201 C93.2247604,1.14530919 93.2389336,1.1099735 93.2389336,1.0534364 C93.2389336,0.97569788 93.196414,0.91209364 93.1255479,0.876757951 L93.1255479,0.876757951 Z M82.8854015,9.90856007 L90.9357865,9.90856007 L89.6247643,12.0004329 L82.7365828,12.0004329 C79.52635,12.0004329 76.9255654,9.34318905 76.9255654,6.0640371 C76.9255654,2.78488516 79.52635,0.127641343 82.7365828,0.127641343 L90.7586213,0.127641343 L89.4405125,2.21951413 L82.8854015,2.21951413 C81.1633561,2.21951413 79.7106018,3.40679329 79.2712322,5.01810071 L90.135,5.01810071 L88.8168911,7.11704064 L79.2712322,7.11704064 C79.7176884,8.72834806 81.1704427,9.90856007 82.8854015,9.90856007 L82.8854015,9.90856007 Z M76.1176923,12.0004329 L65.9342387,12.0004329 C65.622428,12.0004329 65.3318772,11.8802915 65.1121924,11.6612102 C64.9066808,11.4491961 64.7862085,11.1594435 64.7862085,10.8626237 L64.7862085,0.127641343 L67.0255761,0.127641343 L67.0255761,9.90856007 L77.4287145,9.90856007 L76.1176923,12.0004329 L76.1176923,12.0004329 Z M55.7153521,9.90856007 L63.7728237,9.90856007 L62.4618015,12.0004329 L55.5665334,12.0004329 C52.3633873,12.0004329 49.7555161,9.34318905 49.7555161,6.0640371 C49.7555161,2.78488516 52.3633873,0.127641343 55.5665334,0.127641343 L63.588572,0.127641343 L62.2775498,2.21951413 L55.7153521,2.21951413 C53.6389764,2.21951413 51.9523641,3.94389576 51.9523641,6.0640371 C51.9523641,8.19124558 53.6389764,9.90856007 55.7153521,9.90856007 L55.7153521,9.90856007 Z M48.2744153,12.0004329 L47.0342592,9.90856007 L40.9964704,9.90856007 L39.6783616,7.80962014 L45.6381977,7.80962014 L42.4917444,2.62234099 L36.7090735,12.0004329 L34.0728559,12.0075 L41.1098561,0.742482332 C41.4074936,0.283118375 41.9248159,0.0075 42.4846578,0.0075 C43.0374131,0.0075 43.5476488,0.276051237 43.8452862,0.721280919 L50.9035463,12.0075 L48.2744153,12.0004329 L48.2744153,12.0004329 Z M30.0689232,8.15590989 L29.0484518,8.15590989 L33.5342738,12.0004329 L30.288608,12.0004329 L23.6201113,6.0640371 L29.9201044,6.0640371 C30.954749,6.0640371 31.7980552,5.20184629 31.7980552,4.14177562 C31.7980552,3.08170495 30.954749,2.21951413 29.9201044,2.21951413 L22.5287739,2.21951413 L22.5287739,12.0004329 L20.2964928,12.0004329 L20.2964928,0.127641343 L30.0689232,0.127641343 C32.2374248,0.127641343 33.9949032,1.92269435 33.9949032,4.14177562 C33.9949032,6.36085689 32.2374248,8.15590989 30.0689232,8.15590989 L30.0689232,8.15590989 Z M13.3020122,12.0075 L6.54847618,12.0004329 C3.34533004,12.0004329 0.744545455,9.34318905 0.744545455,6.0640371 C0.744545455,2.78488516 3.34533004,0.127641343 6.54847618,0.127641343 L13.3020122,0.127641343 C16.5122449,0.127641343 19.1059429,2.78488516 19.1059429,6.0640371 C19.1059429,9.34318905 16.5122449,12.0075 13.3020122,12.0075 L13.3020122,12.0075 Z M13.1531935,2.21951413 L6.69729492,2.21951413 C4.62091921,2.21951413 2.94139347,3.94389576 2.94139347,6.0640371 C2.94139347,8.19124558 4.62091921,9.90856007 6.69729492,9.90856007 L13.1531935,9.90856007 C15.2295692,9.90856007 16.9090949,8.19124558 16.9090949,6.0640371 C16.9090949,3.94389576 15.2295692,2.21951413 13.1531935,2.21951413 L13.1531935,2.21951413 Z" id="Shape"></path>
            </g>
        </g>
    </g>
</svg>